<?xml version="1.0" standalone="no"?>
<!DOCTYPE svg PUBLIC "-//W3C//DTD SVG 20010904//EN"
 "http://www.w3.org/TR/2001/REC-SVG-20010904/DTD/svg10.dtd">
<svg version="1.0" xmlns="http://www.w3.org/2000/svg"
 width="1280.000000pt" height="1276.000000pt" viewBox="0 0 1280.000000 1276.000000"
 preserveAspectRatio="xMidYMid meet">
<g transform="translate(0.000000,1276.000000) scale(0.100000,-0.100000)"
fill="orange" stroke="none">
<path d="M6155 12749 c-55 -4 -167 -13 -250 -19 -678 -50 -1373 -219 -2017
-492 -171 -72 -526 -251 -688 -346 -166 -97 -253 -152 -248 -157 2 -2 64 3
138 11 202 22 603 29 815 15 772 -53 1446 -268 2140 -684 83 -49 294 -185 470
-302 463 -307 526 -340 650 -340 69 0 72 1 160 59 173 113 343 310 430 499
135 293 150 630 43 951 -77 233 -197 430 -433 713 -23 28 -102 41 -410 67
-454 39 -582 43 -800 25z"/>
<path d="M7650 12625 c0 -2 34 -57 75 -123 401 -646 473 -1165 231 -1678 -96
-202 -233 -388 -504 -683 l-72 -79 432 -404 c238 -222 453 -422 479 -445 l45
-42 140 111 c974 772 1229 963 1613 1208 200 128 375 227 583 332 98 49 180
94 184 99 8 14 -23 46 -176 183 -453 406 -904 713 -1445 981 -434 215 -816
357 -1267 471 -145 36 -318 74 -318 69z"/>
<path d="M3057 11604 c-153 -16 -278 -38 -367 -64 -53 -16 -89 -38 -195 -120
-394 -307 -788 -694 -1092 -1075 -605 -757 -1033 -1653 -1242 -2595 -33 -146
-86 -448 -96 -545 l-6 -60 34 75 c141 308 391 574 757 805 255 160 674 347
1086 484 533 178 998 292 2214 546 333 69 684 144 780 165 978 217 1474 403
1714 643 74 74 133 184 142 263 10 79 -33 151 -171 290 -135 136 -276 241
-505 378 -943 564 -2204 899 -3053 810z"/>
<path d="M10965 10678 c-514 -329 -954 -636 -1480 -1032 -417 -314 -891 -703
-889 -730 1 -11 758 -971 805 -1020 18 -19 21 -18 196 66 491 237 905 352
1313 365 337 11 596 -43 875 -181 331 -164 607 -420 865 -802 44 -65 80 -110
80 -101 0 39 -64 385 -100 546 -244 1068 -759 2049 -1511 2879 -31 34 -60 62
-65 62 -5 -1 -45 -24 -89 -52z"/>
<path d="M7135 9830 c-31 -34 -203 -163 -310 -232 -477 -309 -1107 -537 -2080
-752 -137 -30 -530 -111 -872 -180 -1055 -213 -1413 -299 -1878 -453 -953
-314 -1562 -744 -1907 -1347 l-62 -108 -13 -122 c-16 -160 -16 -290 2 -558 28
-417 64 -701 126 -998 208 -1003 638 -1917 1273 -2708 49 -61 96 -112 103
-112 6 0 78 82 160 183 1923 2374 3780 4284 6106 6282 l278 238 -443 444
c-243 244 -448 443 -454 443 -6 0 -19 -9 -29 -20z"/>
<path d="M8290 8632 c-600 -452 -998 -773 -1480 -1191 -572 -497 -991 -890
-1650 -1550 -878 -878 -1607 -1672 -2601 -2831 -415 -485 -859 -1012 -859
-1021 0 -3 78 -84 173 -179 452 -454 951 -826 1512 -1127 683 -367 1434 -607
2200 -703 50 -6 108 -16 130 -21 38 -10 47 -7 156 49 669 341 1096 1048 1434
2376 94 368 159 670 341 1576 41 206 95 470 120 585 267 1251 545 2008 932
2549 126 176 330 391 460 487 23 17 42 36 42 42 -1 15 -811 1010 -825 1013 -5
2 -44 -23 -85 -54z"/>
<path d="M10510 8074 c-323 -51 -569 -171 -712 -349 -57 -71 -61 -101 -23
-201 39 -105 84 -180 405 -684 225 -354 385 -619 505 -836 590 -1070 845
-2088 755 -3004 -20 -202 -86 -543 -136 -708 -9 -29 73 68 196 230 638 843
1054 1825 1214 2863 39 251 86 772 86 951 0 54 -7 198 -16 318 l-16 220 -40
80 c-92 183 -223 360 -384 517 -319 309 -708 504 -1184 590 -154 28 -509 35
-650 13z"/>
<path d="M9265 7307 c-72 -24 -183 -88 -252 -146 -294 -247 -524 -741 -747
-1601 -84 -326 -143 -590 -355 -1615 -230 -1106 -369 -1656 -552 -2185 -252
-727 -527 -1219 -872 -1561 -55 -55 -122 -116 -149 -136 -45 -35 -47 -38 -27
-45 42 -16 596 12 849 43 1120 134 2174 557 3075 1234 203 153 337 266 547
460 l176 165 51 102 c323 663 288 1658 -99 2818 -203 610 -524 1282 -845 1770
-227 345 -501 658 -603 688 -64 19 -153 23 -197 9z"/>
</g>
</svg>
